<svg width="56" height="56" viewBox="0 0 56 56" fill="none" xmlns="http://www.w3.org/2000/svg">
<rect width="56" height="56" rx="28" fill="#F4EFF6"/>
<path d="M23 27V23C23 21.6739 23.5268 20.4021 24.4645 19.4645C25.4021 18.5268 26.6739 18 28 18C29.3261 18 30.5979 18.5268 31.5355 19.4645C32.4732 20.4021 33 21.6739 33 23V27M21 27H35C36.1046 27 37 27.8954 37 29V36C37 37.1046 36.1046 38 35 38H21C19.8954 38 19 37.1046 19 36V29C19 27.8954 19.8954 27 21 27Z" stroke="#582066" stroke-width="2" stroke-linecap="round" stroke-linejoin="round"/>
</svg>
