<svg width="85" height="40" viewBox="0 0 85 40" fill="none" xmlns="http://www.w3.org/2000/svg">
<path fill-rule="evenodd" clip-rule="evenodd" d="M37.8106 8.68913C36.8884 9.57643 36.8884 11.0973 37.8106 12.0157C38.7328 12.9345 40.2593 12.9345 41.1815 12.0157C42.1032 11.0973 42.1032 9.57643 41.1815 8.68913C40.2593 7.77029 38.7328 7.77029 37.8106 8.68913ZM56.3389 14.9062L54.1766 15.2546C50.0516 16.191 47.3716 17.5329 47.3716 22.0441V31.096L51.1241 31.8562V22.6094C51.1241 20.5013 52.3187 19.5491 54.1766 19.1971L56.3389 18.8023V14.9062ZM27.7781 31.1332L31.5307 31.8933V21.66C31.5307 16.749 27.7148 14.9749 25.0753 14.9749C23.2947 14.9749 21.8958 15.4183 20.6235 16.6539C19.32 15.4183 17.7619 14.9433 16.4896 14.9433C14.6773 14.9433 13.0871 15.7351 12.0378 17.0027V15.2917L8.28571 16.0203V31.1332L12.0378 31.8933V21.5014C12.0378 19.8538 13.2463 18.6817 15.0591 18.6817C16.8397 18.6817 18.0482 19.8538 18.0482 21.5014V31.1332L21.8003 31.8933V21.5014C21.8003 19.8538 23.0084 18.6817 24.7895 18.6817C26.5701 18.6817 27.7781 19.8538 27.7781 21.5014V31.1332ZM76.2857 23.4559C76.2857 28.1679 72.4395 32 67.7419 32C63.0127 32 59.1665 28.1679 59.1665 23.4559C59.1665 18.7755 63.0127 14.9433 67.7419 14.9433C72.4395 14.9433 76.2857 18.7755 76.2857 23.4559ZM67.7419 28.4503C64.9991 28.4503 62.7604 26.2203 62.7604 23.4559C62.7604 20.7231 64.9991 18.5241 67.7419 18.5241C70.4848 18.5241 72.6914 20.7231 72.6914 23.4559C72.6914 26.2203 70.4848 28.4503 67.7419 28.4503ZM41.3402 32L37.5881 31.1332V15.9127L41.3402 15.1525V32Z" fill="black"/>
</svg>
