<svg width="56" height="56" viewBox="0 0 56 56" fill="none" xmlns="http://www.w3.org/2000/svg">
<rect width="56" height="56" rx="28" fill="#F4EFF6"/>
<path d="M38 28C38 33.5228 33.5228 38 28 38M38 28C38 22.4772 33.5228 18 28 18M38 28H18M28 38C22.4772 38 18 33.5228 18 28M28 38C30.5013 35.2616 31.9228 31.708 32 28C31.9228 24.292 30.5013 20.7384 28 18M28 38C25.4987 35.2616 24.0772 31.708 24 28C24.0772 24.292 25.4987 20.7384 28 18M18 28C18 22.4772 22.4772 18 28 18" stroke="#582066" stroke-width="2" stroke-linecap="round" stroke-linejoin="round"/>
</svg>
