<svg width="56" height="56" viewBox="0 0 56 56" fill="none" xmlns="http://www.w3.org/2000/svg">
<rect width="56" height="56" rx="28" fill="#F4EFF6"/>
<path d="M37 18L35 20M35 20L38 23L34.5 26.5L31.5 23.5M35 20L31.5 23.5M27.39 27.61C27.9063 28.1195 28.3168 28.726 28.5978 29.3948C28.8787 30.0635 29.0246 30.7813 29.027 31.5066C29.0295 32.232 28.8884 32.9507 28.6119 33.6213C28.3354 34.2919 27.9291 34.9012 27.4161 35.4141C26.9032 35.9271 26.2939 36.3334 25.6233 36.6099C24.9527 36.8864 24.234 37.0275 23.5086 37.025C22.7833 37.0226 22.0655 36.8767 21.3968 36.5958C20.728 36.3148 20.1215 35.9043 19.612 35.388C18.6101 34.3507 18.0558 32.9614 18.0683 31.5193C18.0808 30.0772 18.6593 28.6977 19.679 27.678C20.6987 26.6583 22.0782 26.0798 23.5203 26.0673C24.9624 26.0548 26.3517 26.6091 27.389 27.611L27.39 27.61ZM27.39 27.61L31.5 23.5" stroke="#582066" stroke-width="2" stroke-linecap="round" stroke-linejoin="round"/>
</svg>
